<?xml version="1.0" encoding="UTF-8" standalone="no"?>
<!-- Created with Inkscape (http://www.inkscape.org/) -->

<svg
   width="194.11482mm"
   height="155.91762mm"
   viewBox="0 0 194.11482 155.91762"
   version="1.1"
   id="svg1"
   xmlns="http://www.w3.org/2000/svg"
   xmlns:svg="http://www.w3.org/2000/svg">
  <defs
     id="defs1" />
  <g
     id="layer1"
     transform="translate(-855.55758,12.259229)">
    <path
       id="rect2-7-9"
       style="color:#000000;fill:#000000;fill-opacity:1;stroke:none;stroke-width:7.5;stroke-dasharray:none;stroke-opacity:1;paint-order:stroke fill markers"
       d="m 952.61472,-12.259229 -50.01038,28.87369 v 5.917468 l 20.21582,11.671639 4.94905,-2.862357 0.0987,-0.399459 c 0.27162,-1.104063 1.15137,-2.12787 2.50941,-2.920752 3.52695,-2.038132 9.18433,-2.039973 12.71602,-0.0041 0.38597,0.222475 0.7117,0.46552 1.01337,0.714168 -0.29891,0.246621 -0.6203,0.487508 -1.002,0.708484 -1.37118,0.785491 -3.14266,1.296139 -5.05447,1.454692 l -0.69092,0.05788 -4.9568,2.866491 v 5.91747 l 20.21272,11.66957 17.25011,-9.9596 1.36374,0.78755 c 0.52697,1.42055 1.63285,2.75396 3.42098,3.78633 l 0.004,0.002 0.003,0.002 c 5.13135,2.96259 13.51507,2.96207 18.64641,-5.1e-4 2.51074,-1.44958 3.76803,-3.34732 3.81734,-5.25498 l -0.0206,-5.827038 c 0.10523,-2.022654 -1.13395,-4.063372 -3.79667,-5.600692 l -0.004,-0.0021 -0.004,-0.0021 c -0.41479,-0.239479 -0.86336,-0.452774 -1.32963,-0.650606 l 10.65928,-6.154147 v -5.917468 z m 0,9.339482 38.95835,22.4932 -12.12639,7.001124 v 5.917468 l 5.14593,2.970878 0.69247,0.05736 c 1.91209,0.157693 3.68433,0.665883 5.05654,1.450562 0.38379,0.22173 0.70692,0.46342 1.00717,0.71106 -0.30083,0.2481 -0.62509,0.49053 -1.00976,0.71262 -3.52891,2.03743 -9.18665,2.03859 -12.71653,0.002 -1.35911,-0.79227 -2.23887,-1.81526 -2.51199,-2.919201 l -0.0997,-0.399975 -5.14542,-2.970878 -17.25063,9.959604 -7.68635,-4.43798 c 0.39151,-0.17408 0.78002,-0.35076 1.13378,-0.555 l 0.003,-0.002 0.004,-0.002 c 2.41755,-1.395772 3.68428,-3.207754 3.81683,-5.043622 l -0.0135,-6.24407 c 0.009,-1.955104 -1.24208,-3.910414 -3.81682,-5.394503 -5.13538,-2.960259 -13.51498,-2.953859 -18.6464,0.0088 l -0.002,10e-4 -0.004,0.0021 c -1.7797,1.037942 -2.8921,2.367041 -3.41684,3.788399 l -1.16737,0.675411 -9.16172,-5.2896 z m -47.04674,55.750602 -50.01039,28.87369 v 5.91747 l 50.01039,28.873695 47.04674,27.16267 50.01088,-28.87368 47.0468,-27.162685 v -5.91747 l -50.01042,-28.87369 -20.21634,11.67164 v 5.91747 l 4.95939,2.85822 0.69143,0.0568 c 1.9122,0.15681 3.68427,0.66553 5.05757,1.44952 0.38558,0.2225 0.71092,0.46501 1.01234,0.71366 -0.29948,0.24703 -0.62141,0.48824 -1.00407,0.70951 -3.52589,2.03909 -9.18288,2.04165 -12.7155,0.007 -1.36058,-0.79169 -2.24304,-1.81484 -2.51768,-2.91868 l -0.10025,-0.39843 -4.96507,-2.86235 -17.24908,9.95856 -7.6972,-4.44417 c 0.46664,-0.19762 0.9162,-0.41062 1.33273,-0.64906 l 0.002,-0.002 0.004,-0.002 c 2.37016,-1.36841 3.62383,-3.13704 3.79977,-4.93561 0.0165,-0.32453 0.0174,-0.22244 0.0165,-0.32453 l -0.0108,-5.98 c 0.0322,-1.97058 -1.21329,-3.94538 -3.80649,-5.44256 -5.13134,-2.96259 -13.51403,-2.96259 -18.64537,0 l -0.004,0.002 -0.002,0.002 c -1.78083,1.03692 -2.8957,2.36605 -3.42253,3.78685 l -1.3622,0.78651 z m 5.2e-4,9.33948 17.25114,9.96012 5.14542,-2.97088 0.0987,-0.39946 c 0.27312,-1.10394 1.1534,-2.12695 2.5125,-2.9192 3.52967,-2.03649 9.18604,-2.0357 12.71499,0.002 h 5.2e-4 c 0.38486,0.22223 0.70933,0.46486 1.01027,0.71313 -0.30023,0.24766 -0.62338,0.48933 -1.00717,0.71107 -1.37227,0.78468 -3.14446,1.29287 -5.05654,1.45056 l -0.69143,0.0568 -5.14594,2.97088 v 5.91747 l 12.12587,7.00112 -9.16274,5.29011 -1.18391,-0.68368 c -0.52931,-1.41947 -1.64538,-2.74732 -3.42615,-3.78271 l -0.003,-0.002 -0.004,-0.002 c -0.007,-0.004 -0.0151,-0.007 -0.0222,-0.0114 -0.0502,-0.0303 -0.095,-0.0626 -0.14624,-0.0925 l -0.003,-0.002 -0.004,-0.002 c -5.13134,-2.96259 -13.51402,-2.96259 -18.64537,0 -2.53116,1.46137 -3.78553,3.37802 -3.81527,5.30149 l -0.0134,6.28953 c 0.19528,1.74472 1.21605,4.333785 3.83213,5.094295 l 0.003,10e-4 c 0.0129,0.007 0.0269,0.0138 0.0398,0.0212 0.0503,0.0297 0.0925,0.0625 0.14366,0.092 l 0.003,0.001 0.004,0.002 c 0.35064,0.2004 0.73486,0.3738 1.12138,0.54519 l -7.67602,4.43177 -38.95783,-22.492685 z m 94.09348,0 38.95832,22.49269 -38.95831,22.493205 -17.25166,-9.960125 -1.65003,0.95395 -3.49436,2.017455 -0.0997,0.39997 c -0.27079,1.09451 -1.1411,2.10811 -2.48046,2.8975 -3.5364,1.94591 -9.07123,1.92318 -12.54911,-0.0816 -0.3844,-0.22157 -0.70899,-0.46304 -1.00976,-0.71056 0.28103,-0.2321 0.57485,-0.46118 0.92915,-0.67076 1.35579,-0.74834 3.07596,-1.23828 4.93561,-1.39165 l 0.69246,-0.0574 0.18086,-0.10438 0.006,-10e-4 3.30523,-1.910985 1.65416,-0.95498 v -5.91747 l -10e-4,-5.2e-4 -12.12536,-7.0006 9.16327,-5.29012 1.18184,0.6811 c 0.52876,1.42082 1.64543,2.74853 3.42769,3.78478 l 0.004,0.002 0.004,0.002 c 5.1355,2.96019 13.51766,2.95735 18.64486,-0.008 2.40079,-1.38834 3.66281,-3.1868 3.80855,-5.01107 0.008,-0.0408 0.006,-0.0291 0.008,-0.0408 0.002,-0.0335 -0.002,-0.0668 0,-0.10025 l 0.007,-6.39444 c -0.13535,-2.87009 -1.0371,-3.41889 -3.83829,-5.13664 l -0.004,-0.002 -0.002,-0.001 c -0.35079,-0.20049 -0.73571,-0.37466 -1.12241,-0.54622 z m -47.04674,27.16268 7.6879,4.43901 c -0.39188,0.17374 -0.78088,0.35047 -1.13585,0.55397 l -0.004,0.002 -0.004,0.002 c -0.007,0.004 -0.0126,0.008 -0.0196,0.0124 -0.0523,0.0288 -0.10819,0.0553 -0.15968,0.0848 l -0.003,0.002 -0.004,0.002 c -2.6591,1.53523 -3.89853,3.57248 -3.79718,5.592425 l -0.0165,5.77174 c 0.0223,1.92891 1.27516,3.85238 3.81372,5.31802 l 1.63246,0.76843 c 5.14618,2.14209 12.3892,1.90189 17.01343,-0.76791 l 0.004,-0.002 0.004,-0.002 c 0.0127,-0.007 0.0234,-0.0154 0.0362,-0.0227 0.0513,-0.0289 0.10785,-0.0533 0.15865,-0.0827 l 0.004,-0.002 0.002,-0.002 c 1.77886,-1.03742 2.89116,-2.36733 3.41632,-3.78788 l 1.16892,-0.67593 9.16068,5.28908 -38.95834,22.49217 -38.95835,-22.49268 12.12639,-7.00113 v -5.917465 l -1.35237,-0.77928 -3.7946,-2.19109 -0.69143,-0.0568 c -1.90039,-0.15672 -3.66098,-0.6606 -5.02967,-1.43712 -0.32124,-0.19506 -0.58278,-0.40867 -0.84181,-0.6227 0.29669,-0.24364 0.61634,-0.48168 0.99426,-0.70021 3.50451,-2.02675 9.1127,-2.03888 12.64936,-0.0408 1.29121,0.78196 2.13739,1.77301 2.40243,2.84427 l 0.0987,0.39894 0.18138,0.1049 10e-4,0.004 3.61064,2.08153 1.35289,0.78083 10e-4,-5.2e-4 z" />
  </g>
</svg>
