<?xml version="1.0" encoding="UTF-8" standalone="no"?>
<!-- Created with Inkscape (http://www.inkscape.org/) -->

<svg
   width="192.32585mm"
   height="188.03874mm"
   viewBox="0 0 192.32585 188.03874"
   version="1.1"
   id="svg1"
   xmlns="http://www.w3.org/2000/svg"
   xmlns:svg="http://www.w3.org/2000/svg">
  <defs
     id="defs1" />
  <g
     id="layer1"
     transform="translate(-327.1713,56.476027)">
    <ellipse
       style="fill:#ffffff;fill-opacity:1;stroke:none;stroke-width:10;stroke-linecap:butt;stroke-linejoin:miter;stroke-dasharray:none;stroke-opacity:1;paint-order:stroke fill markers"
       id="path10"
       cx="423.33331"
       cy="39.687496"
       rx="79.375"
       ry="79.374992" />
    <path
       id="path1"
       style="color:#000000;fill:#000000;fill-opacity:1;stroke:#ffffff;stroke-width:15;stroke-dasharray:none;stroke-opacity:1;paint-order:stroke fill markers"
       d="m 358.94347,-45.869035 -21.16615,21.16615 7.07036,7.07192 7.04867,-7.046598 8.38347,8.38295 C 347.02971,-1.3918923 338.95916,18.213 338.95916,39.6875 c 0,46.539658 37.83504,84.37521 84.37469,84.37521 46.53966,0 84.37521,-37.835552 84.37521,-84.37521 0,-21.474501 -8.07095,-41.0793848 -21.32118,-55.982113 l 8.38347,-8.38295 7.04712,7.046598 7.07191,-7.07192 -21.1677,-21.16615 -7.07036,7.07192 7.04711,7.047115 -8.37778,8.377783 c -13.74021,-12.207101 -31.47881,-20.009382 -50.98759,-21.154781 h -9.9999 c -19.50942,1.145317 -37.24828,8.948144 -50.98862,21.155815 l -8.37882,-8.378817 7.04866,-7.047115 z m 64.39038,11.181747 c 41.13528,0 74.37531,33.2395144 74.37531,74.374788 0,41.135274 -33.24003,74.37479 -74.37531,74.37479 -41.13528,0 -74.37479,-33.239516 -74.37479,-74.37479 0,-41.1352736 33.23951,-74.374788 74.37479,-74.374788 z" />
    <ellipse
       style="fill:#000000;fill-opacity:1;stroke:#000000;stroke-width:10;stroke-linecap:butt;stroke-linejoin:miter;stroke-dasharray:none;stroke-opacity:1"
       id="path3"
       cx="423.33331"
       cy="39.687496"
       rx="13.229166"
       ry="13.229165" />
    <path
       style="fill:none;fill-opacity:1;stroke:#000000;stroke-width:10;stroke-linecap:butt;stroke-linejoin:miter;stroke-dasharray:none;stroke-opacity:1"
       d="M 423.33333,39.687498 436.5625,-5.2916664 m -13.22917,44.9791644 34.39583,42.333331"
       id="path4" />
    <path
       style="fill:#000000;fill-opacity:1;stroke:#231f20;stroke-width:10;stroke-linecap:butt;stroke-linejoin:miter;stroke-dasharray:none;stroke-opacity:1"
       d="m 357.1875,39.687497 13.22916,10e-7"
       id="path5" />
    <path
       style="fill:#000000;fill-opacity:1;stroke:#231f20;stroke-width:10;stroke-linecap:butt;stroke-linejoin:miter;stroke-dasharray:none;stroke-opacity:1"
       d="m 423.33333,-26.458332 v 13.229166"
       id="path6" />
    <path
       style="fill:#000000;fill-opacity:1;stroke:#231f20;stroke-width:10;stroke-linecap:butt;stroke-linejoin:miter;stroke-dasharray:none;stroke-opacity:1"
       d="m 489.47916,39.687497 -13.22916,10e-7"
       id="path7" />
    <path
       style="fill:#000000;fill-opacity:1;stroke:#231f20;stroke-width:10;stroke-linecap:butt;stroke-linejoin:miter;stroke-dasharray:none;stroke-opacity:1"
       d="M 423.33333,105.83333 V 92.604161"
       id="path8" />
  </g>
</svg>
