<?xml version="1.0" encoding="UTF-8" standalone="no"?>
<!-- Created with Inkscape (http://www.inkscape.org/) -->

<svg
   width="226.7908mm"
   height="262.62686mm"
   viewBox="0 0 226.7908 262.62686"
   version="1.1"
   id="svg1"
   xmlns="http://www.w3.org/2000/svg"
   xmlns:svg="http://www.w3.org/2000/svg">
  <defs
     id="defs1" />
  <g
     id="layer1"
     transform="translate(-858.19155,-207.16926)">
    <g
       id="layer1-1-5"
       style="stroke-width:20;stroke-dasharray:none;paint-order:normal"
       transform="translate(911.49217,293.71611)">
      <path
         id="path18-2"
         style="color:#000000;display:inline;fill:#000000;fill-opacity:1;stroke:none;stroke-width:4.2;stroke-linecap:butt;stroke-dasharray:none;stroke-opacity:1"
         d="m 43.300713,-86.546843 -48.3004107,27.88667 -43.3012333,25.000024 -4.999694,2.886646 v 5.773291 100.000097 5.773808 l 4.999694,2.886646 86.601949,50.000051 4.999695,2.88664 15.189254,-8.76949 v -16.1494 c -1.433184,-1.46662 -2.82188,-2.97639 -4.123262,-4.56355 L 53.30062,105.70964 C 44.039198,93.836696 38.490154,78.946799 38.490154,62.821817 c 0,-10.392962 2.307208,-20.271684 6.425965,-29.161527 h 0.0031 c 0.659112,-1.424839 1.37215,-2.819992 2.122351,-4.191992 0.06071,-0.110875 0.118032,-0.223831 0.179317,-0.334347 0.709397,-1.280884 1.46537,-2.532214 2.251026,-3.763078 0.128228,-0.200707 0.253754,-0.403217 0.383956,-0.602547 12.520434,-19.1839837 34.158584,-31.9463704 58.634151,-31.9463704 3.19116,0 6.32837,0.2362977 9.40976,0.6557739 l 2.00453,0.298173 c 7.07469,1.1747748 13.79633,3.4228498 19.99981,6.56704105 V -30.773503 l -4.9997,-2.886646 -86.603495,-50.000049 z m 0,23.093681 66.603167,38.45295 L 43.300713,13.453254 19.591566,-0.23583249 -23.300906,-25.000212 Z m 5.17e-4,8.45323 -24.655343,14.23479 c -15.0087183,8.665231 -15.6056564,22.520469 -1.3255,30.765048 14.280035,8.2446422 38.278574,7.8999563 53.287187,-0.765328 l 24.655342,-14.23479 z m -0.592212,13.73973 28.755868,16.602088 -12.460222,7.193876 c -8.417926,4.860127 -21.47987,5.04743 -29.489156,0.42323 -8.00935,-4.624164 -7.684182,-12.165226 0.733806,-17.025318 z m -76.009831,33.5808962 45.11611,26.0480228 21.48551,12.404927 v 76.905896 l -66.60162,-38.452946 z" />
    </g>
    <g
       id="layer4-5-6"
       transform="translate(794.98226,296.53818)"
       style="display:inline">
      <path
         id="path28-3-1"
         style="color:#000000;fill:#000000;stroke-linecap:square;-inkscape-stroke:none"
         d="m 224.99993,-4.9999028 c -35.78,-2.6e-6 -65.00017,29.2196598 -65.00017,64.9996498 0,18.344049 7.69301,34.951269 20.00033,46.793013 v 66.46519 l 44.99984,-12.85761 44.99983,12.85761 v -66.46519 c 12.30738,-11.841751 20.00033,-28.448909 20.00033,-46.793013 0,-35.77999 -29.22017,-64.9996524 -65.00016,-64.9996498 z m 0,19.9998128 c 24.9712,-2e-6 44.99983,20.028628 44.99983,44.999837 0,13.189456 -5.59053,24.997 -14.54278,33.205725 l -1.82211,1.503268 c -6.51336,5.37448 -14.37,8.77872 -22.6596,9.88984 -0.11503,0.0151 -0.2304,0.0292 -0.34571,0.0434 -0.50185,0.0633 -1.00526,0.11842 -1.50999,0.16485 -0.30862,0.0276 -0.61922,0.0483 -0.92966,0.0698 -0.3581,0.0255 -0.71562,0.0534 -1.07487,0.0703 -0.6994,0.0319 -1.40174,0.0531 -2.10943,0.0532 -0.0912,-2.3e-4 -0.18174,-0.006 -0.27285,-0.007 -0.57599,-0.003 -1.14881,-0.019 -1.71928,-0.0434 -9.74387,-0.45599 -19.09348,-4.06512 -26.62886,-10.317205 l -2.66082,-2.208134 c -8.46949,-8.168471 -13.72371,-19.645199 -13.72371,-32.424894 0,-24.971209 20.02863,-44.999839 44.99984,-44.999837 z m 25.00002,20.857642 -7.07037,7.071919 -22.92935,22.9278 -7.92975,-7.927682 -7.07037,-7.071919 -14.1428,14.142289 7.07243,7.070369 22.07049,22.072038 37.07009,-37.072156 7.07244,-7.070369 z M 199.9999,119.97438 c 7.6599,3.21373 16.05335,5.00088 24.84758,5.0214 0.0439,1.9e-4 0.0874,0.004 0.13126,0.004 h 0.0114 0.01 5.1e-4 0.006 c 8.84752,-9.1e-4 17.29139,-1.79394 24.99383,-5.02553 v 26.76788 l -25.00003,-7.14272 -25.00002,7.14272 z" />
      <g
         id="path26-5-9" />
    </g>
  </g>
</svg>
