<?xml version="1.0" encoding="UTF-8" standalone="no"?>
<!-- Created with Inkscape (http://www.inkscape.org/) -->

<svg
   width="201.61476mm"
   height="164.5779mm"
   viewBox="0 0 201.61476 164.5779"
   version="1.1"
   id="svg1"
   inkscape:version="1.3.2 (091e20ef0f, 2023-11-25, custom)"
   sodipodi:docname="logos.svg"
   xmlns:inkscape="http://www.inkscape.org/namespaces/inkscape"
   xmlns:sodipodi="http://sodipodi.sourceforge.net/DTD/sodipodi-0.dtd"
   xmlns="http://www.w3.org/2000/svg"
   xmlns:svg="http://www.w3.org/2000/svg">
  <sodipodi:namedview
     id="namedview1"
     pagecolor="#505050"
     bordercolor="#eeeeee"
     borderopacity="1"
     inkscape:showpageshadow="0"
     inkscape:pageopacity="0"
     inkscape:pagecheckerboard="0"
     inkscape:deskcolor="#505050"
     inkscape:document-units="mm"
     showborder="false"
     showgrid="true"
     inkscape:zoom="0.70710678"
     inkscape:cx="2540.6347"
     inkscape:cy="206.47518"
     inkscape:window-width="1920"
     inkscape:window-height="1052"
     inkscape:window-x="0"
     inkscape:window-y="0"
     inkscape:window-maximized="1"
     inkscape:current-layer="layer1"
     showguides="true">
    <inkscape:grid
       type="axonomgrid"
       id="grid1"
       units="mm"
       originx="-72.607088"
       originy="45.722162"
       spacingx="0"
       spacingy="10"
       empcolor="#0099e5"
       empopacity="0.30196078"
       color="#0099e5"
       opacity="0.14901961"
       empspacing="5"
       dotted="false"
       gridanglex="30"
       gridanglez="30"
       visible="true"
       enabled="false" />
    <inkscape:grid
       id="grid2"
       units="mm"
       originx="-72.607088"
       originy="45.722162"
       spacingx="2.6458333"
       spacingy="2.6458333"
       empcolor="#0099e5"
       empopacity="0.30196078"
       color="#0099e5"
       opacity="0.14901961"
       empspacing="5"
       dotted="false"
       gridanglex="30"
       gridanglez="30"
       visible="true"
       enabled="true" />
  </sodipodi:namedview>
  <defs
     id="defs1" />
  <g
     inkscape:label="Layer 1"
     inkscape:groupmode="layer"
     id="layer1"
     transform="translate(-72.607088,45.722159)">
    <path
       style="fill:#ffffff;fill-opacity:1;stroke-width:7.50001;stroke-dasharray:none"
       d="M 89.958332,55.562497 126.368,33.037539 l 19.15283,6.649958 13.517,-0.103024 -0.28783,10.686357 14.66422,0.589886 14.43994,-5.881553 2.80505,-8.405621 5.84644,-3.375443 25.74434,-1.448102 39.6875,23.8125 -88.52302,54.420033 z"
       id="path9"
       inkscape:export-filename="puzzle pieces.png"
       inkscape:export-xdpi="96"
       inkscape:export-ydpi="96" />
    <path
       style="fill:#ffffff;fill-opacity:1;stroke-width:7.5;stroke-dasharray:none"
       d="m 137.58333,-10.583333 34.39583,-23.812497 34.39583,21.166664 2.64584,26.458332 L 187.85416,7.9374994 174.625,15.874999 149.45428,12.774155 143.62087,9.3985677 Z"
       id="path2" />
    <path
       id="rect2-7"
       style="color:#000000;fill:#000000;fill-opacity:1;stroke:#ffffff;stroke-width:7.5;stroke-dasharray:none;stroke-opacity:1;paint-order:stroke fill markers"
       inkscape:label="rect2"
       d="m 173.41422,-41.392028 -50.01038,28.87369 v 5.9174684 l 20.21582,11.6716386 4.94905,-2.862357 0.0987,-0.399459 c 0.27162,-1.10406263 1.15137,-2.12786963 2.50941,-2.9207516 3.52695,-2.038132 9.18433,-2.039973 12.71602,-0.0041 0.38597,0.22247497 0.7117,0.46551997 1.01337,0.71416797 -0.29891,0.246621 -0.6203,0.487508 -1.002,0.708484 C 162.53303,1.092244 160.76155,1.602892 158.84974,1.761445 l -0.69092,0.05788 -4.9568,2.866491 v 5.917469 l 20.21272,11.669572 17.25011,-9.959599 1.36374,0.787549 c 0.52697,1.420545 1.63285,2.753955 3.42098,3.786332 l 0.004,0.0021 0.003,0.0021 c 5.13135,2.962589 13.51507,2.962069 18.64641,-5.17e-4 2.51074,-1.449574 3.76803,-3.347314 3.81734,-5.254976 l -0.0206,-5.827038 c 0.10523,-2.022654 -1.13395,-4.063372 -3.79667,-5.60069163 l -0.004,-0.0021 -0.004,-0.0021 c -0.41479,-0.239479 -0.86336,-0.452774 -1.32963,-0.650606 l 10.6593,-6.15414697 v -5.9174684 z m 0,9.339482 38.95835,22.4932004 -12.12639,7.001124 V 3.359246 l 5.14593,2.970878 0.69247,0.05736 c 1.91209,0.157693 3.68433,0.665883 5.05654,1.450557 0.38379,0.221739 0.70692,0.46342 1.00717,0.711068 -0.30083,0.2481 -0.62509,0.49053 -1.00976,0.712618 -3.52891,2.037425 -9.18665,2.038588 -12.71653,0.0021 -1.35911,-0.792268 -2.23887,-1.815265 -2.51199,-2.919202 l -0.0997,-0.399975 -5.14542,-2.970878 -17.25063,9.959599 -7.68635,-4.437972 c 0.39151,-0.174085 0.78002,-0.35076 1.13378,-0.555005 l 0.003,-0.0016 0.004,-0.0021 c 2.41755,-1.39577 3.68428,-3.207752 3.81683,-5.04362 l -0.0135,-6.2440696 c 0.009,-1.955104 -1.24208,-3.910414 -3.81682,-5.394503 -5.13538,-2.9602594 -13.51498,-2.9538594 -18.6464,0.0088 l -0.002,0.001 -0.004,0.0021 c -1.7797,1.037942 -2.8921,2.367041 -3.41684,3.788399 l -1.16737,0.675411 -9.16172,-5.2896 z m -47.04674,55.750602 -50.010386,28.87369 v 5.917468 l 50.010386,28.87369 47.04674,27.162686 50.0109,-28.873693 47.04674,-27.162683 v -5.917468 l -50.01038,-28.87369 -20.21634,11.671639 v 5.917468 l 4.95939,2.858224 0.69143,0.05684 c 1.9122,0.156811 3.68427,0.665527 5.05757,1.449524 0.38558,0.222499 0.71092,0.465002 1.01234,0.713651 -0.29948,0.247038 -0.62141,0.488246 -1.00407,0.709518 -3.52589,2.039091 -9.18288,2.041648 -12.7155,0.0067 -1.36058,-0.791691 -2.24304,-1.814843 -2.51768,-2.918685 l -0.10025,-0.398426 -4.96507,-2.862357 -17.24908,9.958565 -7.6972,-4.444173 c 0.46664,-0.19762 0.9162,-0.410614 1.33273,-0.649056 l 0.002,-0.0016 0.004,-0.0021 c 2.37016,-1.368413 3.62383,-3.137039 3.79977,-4.935616 0.0165,-0.324529 0.0174,-0.222436 0.0165,-0.324529 l -0.0108,-5.979997 c 0.0322,-1.970583 -1.21329,-3.945381 -3.80649,-5.442562 -5.13134,-2.962588 -13.51403,-2.962584 -18.64537,0 l -0.004,0.0021 -0.002,0.0016 c -1.78083,1.036918 -2.8957,2.366054 -3.42253,3.786849 l -1.3622,0.786516 z m 5.2e-4,9.339482 17.25114,9.960115 5.14542,-2.970878 0.0987,-0.399459 c 0.27312,-1.103941 1.1534,-2.126954 2.5125,-2.919201 3.52967,-2.036486 9.18604,-2.035696 12.71499,0.0016 h 5.2e-4 c 0.38486,0.222227 0.70933,0.464858 1.01027,0.713135 -0.30023,0.247659 -0.62338,0.489329 -1.00717,0.711067 -1.37227,0.784679 -3.14446,1.29287 -5.05654,1.450558 l -0.69143,0.05684 -5.14594,2.970878 v 5.917468 l 12.12587,7.001123 -9.16274,5.290117 -1.18391,-0.68368 c -0.52931,-1.419477 -1.64538,-2.74733 -3.42615,-3.782714 l -0.003,-0.0016 -0.004,-0.0021 c -0.007,-0.0041 -0.0151,-0.0072 -0.0222,-0.01137 -0.0502,-0.03032 -0.095,-0.06265 -0.14624,-0.0925 l -0.003,-0.0016 -0.004,-0.0021 c -5.13134,-2.962587 -13.51402,-2.962587 -18.64537,0 -2.53116,1.461369 -3.78553,3.378019 -3.81527,5.301485 l -0.0134,6.289539 c 0.19528,1.744717 1.21605,4.333781 3.83213,5.094296 l 0.003,0.001 c 0.0129,0.0074 0.0269,0.01376 0.0398,0.02119 0.0503,0.0297 0.0925,0.06254 0.14366,0.09198 l 0.003,0.001 0.004,0.0021 c 0.35064,0.200398 0.73486,0.373801 1.12138,0.545187 L 126.368,78.022784 87.410167,55.530101 Z m 94.09348,0 38.95834,22.492684 -38.95833,22.4932 -17.25166,-9.960115 -1.65003,0.953947 -3.49436,2.017448 -0.0997,0.399975 c -0.27079,1.094524 -1.1411,2.108113 -2.48046,2.897498 -3.5364,1.945915 -9.07123,1.923177 -12.54911,-0.08165 -0.3844,-0.221558 -0.70899,-0.463025 -1.00976,-0.710551 0.28103,-0.232098 0.57485,-0.46118 0.92915,-0.67076 1.35579,-0.748346 3.07596,-1.238278 4.93561,-1.391646 l 0.69246,-0.05736 0.18086,-0.104387 0.006,-0.001 3.30523,-1.910995 1.65416,-0.95498 v -5.917468 l -0.001,-5.17e-4 -12.12536,-7.000606 9.16327,-5.290117 1.18184,0.681096 c 0.52876,1.420825 1.64543,2.748528 3.42769,3.784781 l 0.004,0.0021 0.004,0.0021 c 5.1355,2.960188 13.51766,2.957352 18.64486,-0.0078 2.40079,-1.388341 3.66281,-3.1868 3.80855,-5.011064 0.008,-0.04081 0.006,-0.02908 0.008,-0.04081 0.002,-0.03348 -0.002,-0.06676 0,-0.100252 l 0.007,-6.394442 c -0.13535,-2.870094 -1.0371,-3.41889 -3.83829,-5.136638 l -0.004,-0.0021 -0.002,-10e-4 c -0.35079,-0.20049 -0.73571,-0.374664 -1.12241,-0.54622 z m -47.04674,27.162683 7.6879,4.439005 c -0.39188,0.173742 -0.78088,0.350468 -1.13585,0.553972 l -0.004,0.0021 -0.004,0.0021 c -0.007,0.004 -0.0126,0.0084 -0.0196,0.0124 -0.0523,0.02881 -0.10819,0.0553 -0.15968,0.08475 l -0.003,0.0021 -0.004,0.0021 c -2.6591,1.535233 -3.89853,3.572477 -3.79718,5.592423 l -0.0165,5.771739 c 0.0223,1.928908 1.27516,3.85238 3.81372,5.318021 l 1.63246,0.768429 c 5.14618,2.142091 12.3892,1.901885 17.01343,-0.767912 l 0.004,-0.0021 0.004,-0.0021 c 0.0127,-0.0074 0.0234,-0.01538 0.0362,-0.02274 0.0513,-0.02892 0.10785,-0.05329 0.15865,-0.08268 l 0.004,-0.0021 0.002,-0.0016 c 1.77886,-1.037424 2.89116,-2.367326 3.41632,-3.787883 l 1.16892,-0.675927 9.16068,5.289082 -38.95834,22.49217 -38.95835,-22.492686 12.12639,-7.001123 v -5.917469 l -1.35237,-0.77928 -3.7946,-2.191081 -0.69143,-0.05684 c -1.90039,-0.156723 -3.66098,-0.660608 -5.02967,-1.437122 -0.32124,-0.195064 -0.58278,-0.408675 -0.84181,-0.622701 0.29669,-0.243645 0.61634,-0.481684 0.99426,-0.700215 3.50451,-2.026751 9.1127,-2.03888 12.64936,-0.04083 1.29121,0.781962 2.13739,1.773017 2.40243,2.844271 l 0.0987,0.398942 0.18138,0.104903 0.001,0.0036 3.61064,2.081526 1.35289,0.780831 0.001,-5.16e-4 z"
       sodipodi:nodetypes="cccccccsccccccccccccscccccccccccccccccscccccccccccccccccccccccccccccccccccccccccccccccscccccccccccccccccccccccccccccsccccccccccccccccccccscccccccccccccccsccccccccccccccsccccccccccccsccccccccccccccccsccccccc" />
  </g>
</svg>
